<?xml version="1.0" encoding="utf-8"?>
<!-- Generator: Adobe Illustrator 19.1.0, SVG Export Plug-In . SVG Version: 6.00 Build 0)  -->
<svg version="1.1" id="Layer_1" xmlns="http://www.w3.org/2000/svg" xmlns:xlink="http://www.w3.org/1999/xlink" x="0px" y="0px"
	 viewBox="-307.4 418.2 257.7 107.4" style="enable-background:new -307.4 418.2 257.7 107.4;" xml:space="preserve">
<style type="text/css">
	.st0{fill:none;}
	.st1{fill:#E8E8E8;}
	.st2{font-family:'GothamBold';}
	.st3{font-size:127px;}
	.st4{letter-spacing:-8;}
	.st5{display:none;enable-background:new    ;}
	.st6{display:inline;fill:#C6C6C6;}
	.st7{fill:#686868;stroke:#686868;stroke-miterlimit:10;}
	.st8{fill:#3883FC;stroke:#3883FC;stroke-width:3;}
	.st9{fill:#3883FC;stroke:#3883FC;stroke-miterlimit:10;}
	.st10{display:none;fill:#3883FC;}
	.st11{fill:#3883FC;}
	.st12{enable-background:new    ;}
	.st13{display:inline;fill:#D3D3D3;}
	.st14{fill:#C9C9C9;}
</style>
<g id="Layer_4">
</g>
<g id="Layer_1_1_">
	<rect x="-314.4" y="426.8" class="st0" width="264.7" height="124.7"/>
	<text transform="matrix(1 0 0 1 -314.4333 519.3652)" class="st1 st2 st3 st4">GB</text>
	<rect x="-340.4" y="377.1" class="st0" width="317.7" height="58"/>
	
		<text transform="matrix(1 0 0 1 -303.6998 570.2979)" class="st2" style="display:none;fill:#C6C6C6;enable-background:new    ; font-size:35px;">REAL ESTATE</text>
	<path class="st7" d="M-151.4,472.7"/>
	<rect x="-338.4" y="546.5" class="st0" width="317.7" height="58"/>
	
		<text transform="matrix(1 0 0 1 -303.7 571.1671)" class="st2" style="display:none;fill:#C6C6C6;enable-background:new    ; font-size:35px;">CONSULTING</text>
	<path class="st8" d="M-62.2,488L-97,453.2l-33.1,33.1c0.7,2.3,1,4.7,1,7.3c0,4.2-1,8-2.7,11.4v13.4h21.1v-26c0-3.2,2.3-5.9,5.6-5.9
		h16.4c3.2,0,5.9,2.6,5.9,5.9v26h21.1V488h-0.2H-62.2z"/>
	<path class="st9" d="M-51.7,469.4l-11.7-11.7V434c0-0.9-0.6-1.5-1.5-1.5h-13.7c-0.9,0-1.5,0.6-1.5,1.5v7l-12.6-12.3
		c-2.1-2.3-5.9-2.3-8.2,0l-40.7,40.7c-0.7,0.7-1.2,1.6-1.5,2.6c3.3,1.3,6.2,3.6,8.5,6.5c0.4-0.2,0.8-0.5,1.1-0.9l36.6-36.6
		l36.9,36.6c2.3,2.3,5.9,2.3,8.2,0C-49.5,475.5-49.5,471.7-51.7,469.4z"/>
</g>
<g id="Layer_3">
</g>
<g id="Layer_2">
	<rect x="-307.4" y="608.5" class="st10" width="257.7" height="7.9"/>
	<rect x="-307.4" y="406.1" class="st11" width="257.7" height="12.1"/>
	<rect x="-307.4" y="525.6" class="st11" width="257.7" height="12"/>
</g>
<rect x="-126.6" y="408.5" class="st0" width="68.4" height="19.3"/>
<text transform="matrix(1 0 0 1 -120.6005 416.0363)" class="st1 st2" style="font-size:9px;">REAL ESTATE</text>
<text transform="matrix(0.7071 0.7071 -0.7071 0.7071 -421.9242 801.6777)" class="st2" style="display:none;fill:#D3D3D3;enable-background:new    ; font-size:9px;">ESTATE</text>
<rect x="-302.2" y="544.1" class="st0" width="241.1" height="52.6"/>
<text transform="matrix(1 0 0 1 -299.1085 570.4002)" class="st14 st2" style="font-size:34px;">CONSULTING</text>
<rect x="-125.1" y="528" class="st0" width="68.4" height="19.3"/>
<text transform="matrix(1 0 0 1 -118.0505 534.5988)" class="st1 st2" style="font-size:9px;">GAIL BOGLE</text>
</svg>
