<?xml version="1.0" encoding="utf-8"?>
<!-- Generator: Adobe Illustrator 19.1.0, SVG Export Plug-In . SVG Version: 6.00 Build 0)  -->
<svg version="1.1" id="Layer_1" xmlns="http://www.w3.org/2000/svg" xmlns:xlink="http://www.w3.org/1999/xlink" x="0px" y="0px"
	 viewBox="-620.367 438.831 812.957 338.764" style="enable-background:new -606.367 438.831 812.957 338.764;"
	 xml:space="preserve">
<style type="text/css">
	.st0{fill:#E8E8E8;}
	.st1{font-family:'Arial';font-weight:700}
	.st2{font-size:400.5897px;}
	.st3{letter-spacing:-24;}
	.st4{display:none;enable-background:new    ;}
	.st5{display:inline;fill:#C6C6C6;}
	.st6{fill:#686868;stroke:#686868;stroke-miterlimit:10;}
	.st7{fill:#3883FC;stroke:#3883FC;stroke-width:3;}
	.st8{fill:#3883FC;stroke:#3883FC;stroke-miterlimit:10;}
	.st9{display:none;fill:#3883FC;}
	.st10{fill:#3883FC;}
	.st11{fill:none;}
	.st12{enable-background:new    ;}
	.st13{display:inline;fill:#D3D3D3;}
	.st14{display:inline;fill:#C9C9C9;}
</style>
<g id="Layer_4">
</g>
<g id="Layer_1_1_">
	<text transform="matrix(1 0 0 1 -628.6027 757.9289)" class="st0 st1 st2 st3">G</text>
	
		<text transform="matrix(1 0 0 1 -594.7452 918.5833)" class="st1" style="display:none;fill:#C6C6C6;enable-background:new    ; font-size:110.3987px;">REAL ESTATE</text>
	<path class="st6" d="M-114.197,610.735"/>
	
		<text transform="matrix(1 0 0 1 -594.7476 921.3262)" class="st1" style="display:none;fill:#C6C6C6;enable-background:new    ; font-size:110.3987px;">CONSULTING</text>
	<path class="st7" d="M167.162,658.995L57.394,549.227L-47.156,653.778c2.129,7.193,3.299,14.881,3.299,22.881
		c0,13.104-3.109,25.381-8.517,35.977v42.248h66.555v-82.01c0-10.094,7.255-18.61,17.664-18.61h51.73
		c10.094,0,18.61,8.201,18.61,18.61v82.01h66.555v-95.889h-0.631H167.162z"/>
	<path class="st8" d="M199.966,600.484l-36.905-36.905v-74.756c0-2.839-1.892-4.731-4.731-4.731h-43.213
		c-2.839,0-4.731,1.892-4.731,4.731v22.08l-39.743-38.797c-6.624-7.255-18.61-7.255-25.865,0L-83.601,600.484
		c-2.254,2.352-3.723,5.146-4.577,8.048c10.472,4.164,19.689,11.312,26.862,20.541c1.269-0.763,2.489-1.634,3.579-2.724
		L57.71,510.903l116.392,115.446c7.255,7.255,18.61,7.255,25.865,0C207.221,619.724,207.221,607.738,199.966,600.484z"/>
	<text transform="matrix(1 0 0 1 -338.452 757.9285)" class="st0 st1 st2 st3">B</text>
</g>
<g id="Layer_3">
</g>
<g id="Layer_2">
	<rect x="-606.367" y="1039.082" class="st9" width="812.844" height="24.919"/>
	<rect x="-606.367" y="400.66" class="st10" width="812.957" height="38.172"/>
	<rect x="-606.367" y="777.595" class="st10" width="812.844" height="38.009"/>
</g>
<rect x="-35.971" y="408.232" class="st11" width="215.751" height="60.877"/>
<text transform="matrix(1 0 0 1 -17.2064 432.0031)" class="st0 st1" style="font-size:28.3882px;">REAL ESTATE</text>
<text transform="matrix(0.7071 0.7071 -0.7071 0.7071 -791.9242 1249.2795)" class="st1" style="display:none;fill:#D3D3D3;enable-background:new    ; font-size:9px;">ESTATE</text>
<text transform="matrix(1 0 0 1 -321.1259 1026.4651)" class="st1" style="display:none;fill:#C9C9C9;enable-background:new    ; font-size:34px;">CONSULTING</text>
<text transform="matrix(1 0 0 1 -9.1632 805.9805)" class="st0 st1" style="font-size:28.3882px;">GAIL BOGLE</text>
</svg>
